<svg width="183" height="28" viewBox="0 0 183 28" fill="none" xmlns="http://www.w3.org/2000/svg">
<path d="M15.1636 0.0629883L20.0391 8.37559L29.5068 10.4115L23.0524 17.5849L24.0282 27.1558L15.1636 23.2766L6.29895 27.1558L7.27478 17.5849L0.820312 10.4115L10.288 8.37559L15.1636 0.0629883Z" fill="#FF3D3D"/>
<path d="M53.4124 0.0629883L58.2879 8.37559L67.7556 10.4115L61.3012 17.5849L62.277 27.1558L53.4124 23.2766L44.5477 27.1558L45.5236 17.5849L39.0691 10.4115L48.5368 8.37559L53.4124 0.0629883Z" fill="#FF3D3D"/>
<path d="M91.6606 0.0629883L96.5362 8.37559L106.004 10.4115L99.5494 17.5849L100.525 27.1558L91.6606 23.2766L82.796 27.1558L83.7719 17.5849L77.3174 10.4115L86.7851 8.37559L91.6606 0.0629883Z" fill="#FF3D3D"/>
<path d="M129.909 0.0629883L134.785 8.37559L144.252 10.4115L137.798 17.5849L138.774 27.1558L129.909 23.2766L121.045 27.1558L122.02 17.5849L115.566 10.4115L125.034 8.37559L129.909 0.0629883Z" fill="#626262"/>
<path d="M168.158 0.0629883L173.034 8.37559L182.501 10.4115L176.047 17.5849L177.023 27.1558L168.158 23.2766L159.293 27.1558L160.269 17.5849L153.815 10.4115L163.282 8.37559L168.158 0.0629883Z" fill="#626262"/>
</svg>
