<svg width="182" height="28" viewBox="0 0 182 28" fill="none" xmlns="http://www.w3.org/2000/svg">
<path d="M15.124 0.170898L19.9861 8.46056L29.4277 10.4909L22.991 17.6445L23.9642 27.189L15.124 23.3205L6.28384 27.189L7.25698 17.6445L0.820312 10.4909L10.2619 8.46056L15.124 0.170898Z" fill="#FF3D3D"/>
<path d="M53.2673 0.170898L58.1294 8.46056L67.571 10.4909L61.1344 17.6445L62.1075 27.189L53.2673 23.3205L44.4271 27.189L45.4003 17.6445L38.9636 10.4909L48.4052 8.46056L53.2673 0.170898Z" fill="#FF3D3D"/>
<path d="M91.4099 0.170898L96.272 8.46056L105.714 10.4909L99.2769 17.6445L100.25 27.189L91.4099 23.3205L82.5697 27.189L83.5429 17.6445L77.1062 10.4909L86.5478 8.46056L91.4099 0.170898Z" fill="#FF3D3D"/>
<path d="M129.553 0.170898L134.416 8.46056L143.857 10.4909L137.42 17.6445L138.394 27.189L129.553 23.3205L120.713 27.189L121.686 17.6445L115.25 10.4909L124.691 8.46056L129.553 0.170898Z" fill="#FF3D3D"/>
<path d="M167.696 0.170898L172.558 8.46056L182 10.4909L175.563 17.6445L176.536 27.189L167.696 23.3205L158.856 27.189L159.829 17.6445L153.393 10.4909L162.834 8.46056L167.696 0.170898Z" fill="#626262"/>
</svg>
