<svg width="35" height="35" viewBox="0 0 35 35" fill="none" xmlns="http://www.w3.org/2000/svg">
<path d="M14.8473 26.0167C17.3924 26.0162 19.8642 25.1642 21.8691 23.5963L28.1725 29.8997L30.2 27.8722L23.8966 21.5688C25.4653 19.5637 26.3178 17.0914 26.3184 14.5456C26.3184 8.2207 21.1722 3.07446 14.8473 3.07446C8.5224 3.07446 3.37616 8.2207 3.37616 14.5456C3.37616 20.8705 8.5224 26.0167 14.8473 26.0167ZM14.8473 5.94225C19.592 5.94225 23.4506 9.80085 23.4506 14.5456C23.4506 19.2903 19.592 23.149 14.8473 23.149C10.1025 23.149 6.24394 19.2903 6.24394 14.5456C6.24394 9.80085 10.1025 5.94225 14.8473 5.94225Z" fill="#7C7C7C"/>
</svg>
