<svg width="32" height="32" viewBox="0 0 32 32" fill="none" xmlns="http://www.w3.org/2000/svg">
<path d="M20 9.99997L9.5875 20.5875C9.24278 20.9679 9.05757 21.4664 9.0702 21.9796C9.08284 22.4928 9.29236 22.9816 9.65538 23.3446C10.0184 23.7076 10.5071 23.9171 11.0204 23.9298C11.5336 23.9424 12.0321 23.7572 12.4125 23.4125L24.825 10.825C25.5144 10.0641 25.8849 9.06718 25.8596 8.04071C25.8343 7.01423 25.4153 6.03678 24.6892 5.31073C23.9632 4.58469 22.9857 4.16565 21.9593 4.14037C20.9328 4.1151 19.9359 4.48553 19.175 5.17497L6.7625 17.7625C5.63865 18.8863 5.00727 20.4106 5.00727 22C5.00727 23.5893 5.63865 25.1136 6.7625 26.2375C7.88636 27.3613 9.41063 27.9927 11 27.9927C12.5894 27.9927 14.1136 27.3613 15.2375 26.2375L25.5 16" stroke="#FF3D3D" stroke-width="2" stroke-linecap="round" stroke-linejoin="round"/>
</svg>
