<svg width="24" height="24" viewBox="0 0 24 24" fill="none" xmlns="http://www.w3.org/2000/svg">
<g clip-path="url(#clip0_60_1426)">
<path fill-rule="evenodd" clip-rule="evenodd" d="M2.82772 0.766499C3.09018 0.504432 3.40534 0.301136 3.75231 0.170084C4.09929 0.0390316 4.47015 -0.0167849 4.84033 0.00633341C5.2105 0.0294517 5.57154 0.130977 5.89951 0.304181C6.22748 0.477385 6.5149 0.718313 6.74272 1.011L9.43522 4.47C9.92872 5.1045 10.1027 5.931 9.90772 6.711L9.08722 9.996C9.0448 10.1661 9.04709 10.3444 9.09387 10.5134C9.14065 10.6824 9.23034 10.8364 9.35422 10.9605L13.0397 14.646C13.164 14.7701 13.3183 14.86 13.4875 14.9068C13.6568 14.9535 13.8354 14.9557 14.0057 14.913L17.2892 14.0925C17.6741 13.9963 18.0759 13.9888 18.4641 14.0706C18.8524 14.1525 19.2169 14.3215 19.5302 14.565L22.9892 17.256C24.2327 18.2235 24.3467 20.061 23.2337 21.1725L21.6827 22.7235C20.5727 23.8335 18.9137 24.321 17.3672 23.7765C13.409 22.3838 9.81513 20.1178 6.85222 17.1465C3.88115 14.184 1.61513 10.5907 0.222218 6.633C-0.320782 5.088 0.166718 3.4275 1.27672 2.3175L2.82772 0.766499Z" fill="#FF3131"/>
</g>
<defs>
<clipPath id="clip0_60_1426">
<rect width="24" height="24" fill="white"/>
</clipPath>
</defs>
</svg>
