<svg width="25" height="25" viewBox="0 0 25 25" fill="none" xmlns="http://www.w3.org/2000/svg">
<path d="M2.34375 17.9688V15.7325C2.34375 10.1173 6.85547 5.48836 12.4609 5.46883C13.798 5.46368 15.1228 5.72259 16.3596 6.23068C17.5963 6.73878 18.7205 7.48607 19.6678 8.42968C20.615 9.37328 21.3666 10.4946 21.8794 11.7294C22.3923 12.9642 22.6563 14.288 22.6562 15.6251V17.9688C22.6562 18.176 22.5739 18.3747 22.4274 18.5213C22.2809 18.6678 22.0822 18.7501 21.875 18.7501H3.125C2.9178 18.7501 2.71909 18.6678 2.57257 18.5213C2.42606 18.3747 2.34375 18.176 2.34375 17.9688Z" stroke="#4A4A4A" stroke-width="2" stroke-linecap="round" stroke-linejoin="round"/>
<path d="M12.5 5.46875V8.59375" stroke="#4A4A4A" stroke-width="2" stroke-linecap="round" stroke-linejoin="round"/>
<path d="M2.68555 12.998L5.71289 13.8086" stroke="#4A4A4A" stroke-width="2" stroke-linecap="round" stroke-linejoin="round"/>
<path d="M22.3145 12.998L19.2871 13.8086" stroke="#4A4A4A" stroke-width="2" stroke-linecap="round" stroke-linejoin="round"/>
<path d="M10.0977 18.75L16.7773 10.0488" stroke="#4A4A4A" stroke-width="2" stroke-linecap="round" stroke-linejoin="round"/>
</svg>
