<svg width="22" height="22" viewBox="0 0 22 22" fill="none" xmlns="http://www.w3.org/2000/svg">
<path d="M7.96641 18.5625H4.125C3.94267 18.5625 3.7678 18.4901 3.63887 18.3612C3.50994 18.2322 3.4375 18.0574 3.4375 17.875V14.0336C3.43719 13.9444 3.45449 13.8559 3.4884 13.7733C3.52232 13.6907 3.57219 13.6157 3.63516 13.5524L13.9477 3.23989C14.0116 3.17493 14.0879 3.12335 14.172 3.08813C14.2561 3.05292 14.3463 3.03479 14.4375 3.03479C14.5287 3.03479 14.6189 3.05292 14.703 3.08813C14.7871 3.12335 14.8634 3.17493 14.9273 3.23989L18.7602 7.0727C18.8251 7.13667 18.8767 7.21293 18.9119 7.29702C18.9471 7.38112 18.9653 7.47138 18.9653 7.56255C18.9653 7.65372 18.9471 7.74397 18.9119 7.82807C18.8767 7.91217 18.8251 7.98842 18.7602 8.05239L8.44766 18.3649C8.38438 18.4279 8.3093 18.4777 8.22672 18.5116C8.14414 18.5456 8.05568 18.5629 7.96641 18.5625V18.5625Z" stroke="#004AAD" stroke-width="2" stroke-linecap="round" stroke-linejoin="round"/>
<path d="M11.6875 5.5L16.5 10.3125" stroke="#004AAD" stroke-width="2" stroke-linecap="round" stroke-linejoin="round"/>
</svg>
