<svg width="24" height="20" viewBox="0 0 24 20" fill="none" xmlns="http://www.w3.org/2000/svg">
<g clip-path="url(#clip0_371_2610)">
<path d="M23.954 4.61841L15.536 11.6334C14.5974 12.4136 13.3257 12.8518 12 12.8518C10.6743 12.8518 9.40263 12.4136 8.464 11.6334L0.046 4.61841C0.032 4.75007 0 4.86924 0 5.00007V15.0001C0.00158786 16.1047 0.528882 17.1638 1.46622 17.9449C2.40356 18.726 3.67441 19.1654 5 19.1667H19C20.3256 19.1654 21.5964 18.726 22.5338 17.9449C23.4711 17.1638 23.9984 16.1047 24 15.0001V5.00007C24 4.86924 23.968 4.75007 23.954 4.61841Z" fill="#FF3D3D"/>
<path d="M14.122 10.4549L23.256 2.84242C22.8135 2.23102 22.1895 1.72495 21.444 1.37303C20.6985 1.0211 19.8568 0.835203 19 0.833252H5.00002C4.14324 0.835203 3.30152 1.0211 2.55605 1.37303C1.81057 1.72495 1.1865 2.23102 0.744019 2.84242L9.87802 10.4549C10.4416 10.9227 11.2046 11.1853 12 11.1853C12.7954 11.1853 13.5584 10.9227 14.122 10.4549Z" fill="#FF3D3D"/>
</g>
<defs>
<clipPath id="clip0_371_2610">
<rect width="24" height="20" fill="white"/>
</clipPath>
</defs>
</svg>
