<svg width="20" height="20" viewBox="0 0 20 20" fill="none" xmlns="http://www.w3.org/2000/svg">
<g clip-path="url(#clip0_230_150)">
<mask id="mask0_230_150" style="mask-type:luminance" maskUnits="userSpaceOnUse" x="0" y="0" width="20" height="20">
<path d="M20 0H0V20H20V0Z" fill="white"/>
</mask>
<g mask="url(#mask0_230_150)">
<path d="M18.3334 13.491C18.3334 16.5243 16.5251 18.3327 13.4917 18.3327H12.5001C12.2791 18.3327 12.0671 18.2449 11.9108 18.0886C11.7545 17.9323 11.6667 17.7203 11.6667 17.4993V12.691C11.6667 12.5819 11.7095 12.4772 11.7858 12.3993C11.8622 12.3214 11.966 12.2765 12.0751 12.2743L13.5417 12.2493C13.5991 12.2454 13.6537 12.223 13.6973 12.1855C13.7409 12.1479 13.7711 12.0972 13.7834 12.041L14.0751 10.4493C14.0812 10.4132 14.0793 10.3762 14.0695 10.3408C14.0597 10.3055 14.0422 10.2728 14.0184 10.2449C13.9945 10.2171 13.9649 10.1949 13.9315 10.1798C13.898 10.1647 13.8617 10.1572 13.8251 10.1577L12.0501 10.1827C11.9401 10.1832 11.8342 10.1408 11.7549 10.0646C11.6755 9.98841 11.629 9.8843 11.6251 9.77436L11.5917 7.73269C11.5917 7.66639 11.6181 7.6028 11.665 7.55591C11.7119 7.50903 11.7754 7.48269 11.8417 7.48269L13.8417 7.44936C13.908 7.44936 13.9716 7.42302 14.0185 7.37613C14.0654 7.32925 14.0917 7.26566 14.0917 7.19936L14.0584 5.19936C14.0584 5.13305 14.0321 5.06946 13.9852 5.02258C13.9383 4.9757 13.8747 4.94936 13.8084 4.94936L11.5584 4.98269C11.2301 4.98812 10.9061 5.05817 10.6048 5.18884C10.3036 5.31952 10.031 5.50826 9.80275 5.74429C9.57446 5.98031 9.39491 6.259 9.27434 6.56442C9.15378 6.86985 9.09456 7.19604 9.10008 7.52436L9.14175 9.81602C9.14285 9.87074 9.13317 9.92515 9.11324 9.97612C9.09332 10.0271 9.06354 10.0736 9.02563 10.1131C8.98771 10.1526 8.94238 10.1842 8.89224 10.2061C8.84211 10.2281 8.78813 10.2399 8.73341 10.241L7.73341 10.2577C7.66711 10.2577 7.60352 10.284 7.55664 10.3309C7.50975 10.3778 7.48341 10.4414 7.48341 10.5077L7.50841 12.091C7.50841 12.1573 7.53475 12.2209 7.58164 12.2678C7.62852 12.3147 7.69211 12.341 7.75841 12.341L8.75841 12.3243C8.86843 12.3238 8.97431 12.3662 9.05364 12.4424C9.13297 12.5186 9.17952 12.6227 9.18341 12.7327L9.25841 17.4827C9.26063 17.5935 9.24071 17.7037 9.19983 17.8067C9.15894 17.9097 9.09791 18.0036 9.02031 18.0827C8.9427 18.1619 8.85009 18.2248 8.74788 18.2677C8.64567 18.3106 8.53593 18.3327 8.42508 18.3327H6.50841C3.47508 18.3327 1.66675 16.5243 1.66675 13.4827V6.50769C1.66675 3.47436 3.47508 1.66602 6.50841 1.66602H13.4917C16.5251 1.66602 18.3334 3.47436 18.3334 6.50769V13.491Z" fill="#FF3D3D"/>
</g>
</g>
<defs>
<clipPath id="clip0_230_150">
<rect width="20" height="20" fill="white"/>
</clipPath>
</defs>
</svg>
