<svg width="40" height="50" viewBox="0 0 40 50" fill="none" xmlns="http://www.w3.org/2000/svg">
<path d="M27.5 5.375H36.875C37.3723 5.375 37.8492 5.57254 38.2008 5.92418C38.5525 6.27581 38.75 6.75272 38.75 7.25V46.625C38.75 47.1223 38.5525 47.5992 38.2008 47.9508C37.8492 48.3025 37.3723 48.5 36.875 48.5H3.125C2.62772 48.5 2.15081 48.3025 1.79918 47.9508C1.44754 47.5992 1.25 47.1223 1.25 46.625V7.25C1.25 6.75272 1.44754 6.27581 1.79918 5.92418C2.15081 5.57254 2.62772 5.375 3.125 5.375H12.5" fill="#FF3D3D"/>
<path d="M27.5 5.375H36.875C37.3723 5.375 37.8492 5.57254 38.2008 5.92418C38.5525 6.27581 38.75 6.75272 38.75 7.25V46.625C38.75 47.1223 38.5525 47.5992 38.2008 47.9508C37.8492 48.3025 37.3723 48.5 36.875 48.5H3.125C2.62772 48.5 2.15081 48.3025 1.79918 47.9508C1.44754 47.5992 1.25 47.1223 1.25 46.625V7.25C1.25 6.75272 1.44754 6.27581 1.79918 5.92418C2.15081 5.57254 2.62772 5.375 3.125 5.375H12.5" stroke="#FF3D3D" stroke-width="2" stroke-linecap="round" stroke-linejoin="round"/>
<path d="M12.5 31.625H27.5" stroke="#FFE2E2" stroke-width="2" stroke-linecap="round" stroke-linejoin="round"/>
<path d="M12.5 24.125H27.5" stroke="#FFE2E2" stroke-width="2" stroke-linecap="round" stroke-linejoin="round"/>
<path d="M10.625 12.875V11C10.625 8.5136 11.6127 6.12903 13.3709 4.37087C15.129 2.61272 17.5136 1.625 20 1.625C22.4864 1.625 24.871 2.61272 26.6291 4.37087C28.3873 6.12903 29.375 8.5136 29.375 11V12.875H10.625Z" fill="#FF3D3D" stroke="#FFE2E2" stroke-width="2" stroke-linecap="round" stroke-linejoin="round"/>
</svg>
