<svg width="20" height="20" viewBox="0 0 20 20" fill="none" xmlns="http://www.w3.org/2000/svg">
<g clip-path="url(#clip0_230_134)">
<mask id="mask0_230_134" style="mask-type:luminance" maskUnits="userSpaceOnUse" x="0" y="0" width="20" height="20">
<path d="M20 0H0V20H20V0Z" fill="white"/>
</mask>
<g mask="url(#mask0_230_134)">
<path d="M13.4917 1.66602H6.50841C3.47508 1.66602 1.66675 3.47436 1.66675 6.50769V13.4827C1.66675 16.5243 3.47508 18.3327 6.50841 18.3327H13.4834C16.5167 18.3327 18.3251 16.5243 18.3251 13.491V6.50769C18.3334 3.47436 16.5251 1.66602 13.4917 1.66602ZM10.0001 13.2327C9.36059 13.2327 8.73546 13.043 8.20374 12.6878C7.67202 12.3325 7.25759 11.8275 7.01287 11.2367C6.76815 10.6459 6.70412 9.99577 6.82888 9.36857C6.95363 8.74136 7.26158 8.16524 7.71377 7.71305C8.16596 7.26086 8.74208 6.95291 9.36929 6.82815C9.99649 6.70339 10.6466 6.76742 11.2374 7.01215C11.8282 7.25687 12.3332 7.67129 12.6885 8.20301C13.0438 8.73473 13.2334 9.35986 13.2334 9.99936C13.2325 10.8566 12.8916 11.6785 12.2854 12.2847C11.6792 12.8909 10.8573 13.2318 10.0001 13.2327ZM14.9334 5.73269C14.8911 5.83364 14.832 5.92664 14.7584 6.00769C14.6774 6.08123 14.5844 6.14042 14.4834 6.18269C14.3319 6.24763 14.1643 6.26567 14.0024 6.23447C13.8405 6.20328 13.6917 6.12429 13.5751 6.00769C13.5015 5.92664 13.4424 5.83364 13.4001 5.73269C13.3561 5.6329 13.3335 5.52506 13.3335 5.41602C13.3335 5.30699 13.3561 5.19915 13.4001 5.09936C13.4404 4.99737 13.4998 4.90403 13.5751 4.82436C13.6721 4.72828 13.7912 4.65752 13.922 4.61828C14.0528 4.57905 14.1912 4.57255 14.3251 4.59936C14.3803 4.60708 14.4338 4.62398 14.4834 4.64936C14.5365 4.66757 14.587 4.69279 14.6334 4.72436C14.6771 4.75512 14.7188 4.78851 14.7584 4.82436C14.8337 4.90403 14.8931 4.99737 14.9334 5.09936C14.9774 5.19915 15 5.30699 15 5.41602C15 5.52506 14.9774 5.6329 14.9334 5.73269Z" fill="#FF3D3D"/>
</g>
</g>
<defs>
<clipPath id="clip0_230_134">
<rect width="20" height="20" fill="white"/>
</clipPath>
</defs>
</svg>
