<svg width="19" height="18" viewBox="0 0 19 18" fill="none" xmlns="http://www.w3.org/2000/svg">
<g opacity="0.8" clip-path="url(#clip0_343_3736)">
<path fill-rule="evenodd" clip-rule="evenodd" d="M4.11783 0.4548C4.15022 0.324941 4.2251 0.209639 4.33056 0.12723C4.43601 0.0448208 4.566 3.69738e-05 4.69983 0L10.293 0C13.1694 0 15.3222 2.3484 15.3378 5.0064C17.6514 5.7576 18.963 8.4276 17.8626 10.8108C17.451 11.7031 16.7923 12.4588 15.9647 12.9885C15.137 13.5183 14.1749 13.7999 13.1922 13.8H11.7522L10.677 17.5644C10.6413 17.6899 10.5656 17.8003 10.4614 17.8789C10.3573 17.9575 10.2303 18 10.0998 18H5.29983C5.2087 18 5.11876 17.9792 5.03686 17.9392C4.95495 17.8992 4.88323 17.8411 4.82713 17.7693C4.77103 17.6975 4.73203 17.6138 4.7131 17.5247C4.69416 17.4355 4.69578 17.3432 4.71783 17.2548L5.13183 15.6H1.09983C1.0087 15.6 0.918761 15.5792 0.836855 15.5392C0.754949 15.4992 0.683225 15.4411 0.627128 15.3693C0.57103 15.2975 0.532033 15.2138 0.513095 15.1247C0.494158 15.0355 0.495779 14.9432 0.517834 14.8548L4.11783 0.4548ZM10.2918 1.2C12.4062 1.2 14.0082 2.8656 14.1282 4.8012L14.0166 4.8H8.29983C8.166 4.80004 8.03601 4.84482 7.93056 4.92723C7.8251 5.00964 7.75022 5.12494 7.71783 5.2548L5.43183 14.4H1.86783L5.16783 1.2H10.293H10.2918ZM9.25264 10.8H7.56783L6.06783 16.8H9.64743L10.7226 13.0356C10.7584 12.9101 10.8341 12.7997 10.9382 12.7211C11.0424 12.6425 11.1693 12.6 11.2998 12.6H13.1922C13.9459 12.6001 14.6838 12.3842 15.3186 11.9781C15.9534 11.5719 16.4585 10.9923 16.7742 10.308C17.5254 8.6796 16.7058 6.864 15.1902 6.2328C15.1434 6.4248 15.0834 6.6168 15.0114 6.8088C14.5721 7.9808 13.7856 8.99084 12.757 9.70402C11.7284 10.4172 10.5067 10.7995 9.25503 10.8H9.25264Z" fill="#FF3D3D"/>
</g>
<defs>
<clipPath id="clip0_343_3736">
<rect width="18" height="18" fill="white" transform="translate(0.5)"/>
</clipPath>
</defs>
</svg>
