<svg width="22" height="22" viewBox="0 0 22 22" fill="none" xmlns="http://www.w3.org/2000/svg">
<path fill-rule="evenodd" clip-rule="evenodd" d="M5.58553 2.72867C5.86798 2.72867 6.13885 2.84087 6.33857 3.04059C6.5383 3.24031 6.6505 3.51119 6.6505 3.79364V4.8586H7.71547C7.99791 4.8586 8.26879 4.97081 8.46851 5.17053C8.66823 5.37025 8.78043 5.64113 8.78043 5.92357C8.78043 6.20602 8.66823 6.4769 8.46851 6.67662C8.26879 6.87634 7.99791 6.98854 7.71547 6.98854H6.6505V8.05351C6.6505 8.33596 6.5383 8.60683 6.33857 8.80655C6.13885 9.00627 5.86798 9.11848 5.58553 9.11848C5.30308 9.11848 5.0322 9.00627 4.83248 8.80655C4.63276 8.60683 4.52056 8.33596 4.52056 8.05351V6.98854H3.45559C3.17315 6.98854 2.90227 6.87634 2.70255 6.67662C2.50283 6.4769 2.39063 6.20602 2.39062 5.92357C2.39063 5.64113 2.50283 5.37025 2.70255 5.17053C2.90227 4.97081 3.17315 4.8586 3.45559 4.8586H4.52056V3.79364C4.52056 3.51119 4.63276 3.24031 4.83248 3.04059C5.0322 2.84087 5.30308 2.72867 5.58553 2.72867ZM5.58553 13.3783C5.86798 13.3783 6.13885 13.4906 6.33857 13.6903C6.5383 13.89 6.6505 14.1609 6.6505 14.4433V15.5083H7.71547C7.99791 15.5083 8.26879 15.6205 8.46851 15.8202C8.66823 16.0199 8.78043 16.2908 8.78043 16.5733C8.78043 16.8557 8.66823 17.1266 8.46851 17.3263C8.26879 17.526 7.99791 17.6382 7.71547 17.6382H6.6505V18.7032C6.6505 18.9856 6.5383 19.2565 6.33857 19.4562C6.13885 19.656 5.86798 19.7682 5.58553 19.7682C5.30308 19.7682 5.0322 19.656 4.83248 19.4562C4.63276 19.2565 4.52056 18.9856 4.52056 18.7032V17.6382H3.45559C3.17315 17.6382 2.90227 17.526 2.70255 17.3263C2.50283 17.1266 2.39063 16.8557 2.39062 16.5733C2.39063 16.2908 2.50283 16.0199 2.70255 15.8202C2.90227 15.6205 3.17315 15.5083 3.45559 15.5083H4.52056V14.4433C4.52056 14.1609 4.63276 13.89 4.83248 13.6903C5.0322 13.4906 5.30308 13.3783 5.58553 13.3783ZM13.0403 2.72867C13.2753 2.72859 13.5038 2.80626 13.6901 2.94958C13.8763 3.0929 14.01 3.29381 14.0701 3.521L15.3257 8.2665L18.8976 10.3261C19.0595 10.4196 19.1939 10.5541 19.2874 10.716C19.3809 10.8778 19.4301 11.0615 19.4301 11.2484C19.4301 11.4353 19.3809 11.619 19.2874 11.7809C19.1939 11.9428 19.0595 12.0772 18.8976 12.1707L15.3257 14.2314L14.0691 18.9758C14.0088 19.2028 13.8752 19.4035 13.689 19.5466C13.5029 19.6898 13.2746 19.7674 13.0398 19.7674C12.8049 19.7674 12.5767 19.6898 12.3905 19.5466C12.2044 19.4035 12.0708 19.2028 12.0105 18.9758L10.7549 14.2303L7.18298 12.1707C7.0211 12.0772 6.88667 11.9428 6.79321 11.7809C6.69975 11.619 6.65054 11.4353 6.65054 11.2484C6.65054 11.0615 6.69975 10.8778 6.79321 10.716C6.88667 10.5541 7.0211 10.4196 7.18298 10.3261L10.7549 8.26544L12.0115 3.521C12.0717 3.29399 12.2051 3.09321 12.3912 2.94991C12.5773 2.80661 12.8055 2.72883 13.0403 2.72867Z" fill="#FF3D3D"/>
</svg>
