<svg width="32" height="32" viewBox="0 0 32 32" fill="none" xmlns="http://www.w3.org/2000/svg">
<path d="M29.628 21.024L29.3293 19.524H25.9773L25.444 21.0133L22.7573 21.0187C24.484 16.868 25.7667 13.7947 26.6027 11.796C26.8213 11.2733 27.2093 11.0067 27.7813 11.0107C28.2187 11.0147 28.932 11.0147 29.9227 11.012L32 21.02L29.628 21.024ZM26.732 17.4693H28.892L28.0853 13.7093L26.732 17.4693ZM9.41333 11.0093L12.1147 11.012L7.93867 21.0253L5.204 21.0227C4.51634 18.3778 3.83722 15.7306 3.16667 13.0813C3.03333 12.5533 2.76933 12.184 2.26133 12.0093C1.51111 11.7579 0.757253 11.5174 0 11.288L0 11.012H4.316C5.06267 11.012 5.49867 11.3733 5.63867 12.1147C5.78 12.8573 6.13467 14.7493 6.70533 17.7867L9.41333 11.0093ZM15.8267 11.012L13.692 21.024L11.12 21.02L13.2533 11.0093L15.8267 11.012ZM21.04 10.8267C21.8093 10.8267 22.7787 11.0667 23.336 11.288L22.8853 13.3627C22.3813 13.16 21.552 12.8867 20.8547 12.896C19.8413 12.9133 19.2147 13.3387 19.2147 13.7467C19.2147 14.4107 20.3027 14.7453 21.4227 15.4707C22.7 16.2973 22.8693 17.04 22.8533 17.848C22.836 19.5213 21.4227 21.1733 18.4413 21.1733C17.0813 21.1533 16.5907 21.04 15.4813 20.6453L15.9507 18.48C17.08 18.952 17.5587 19.1027 18.524 19.1027C19.408 19.1027 20.1667 18.7453 20.1733 18.1227C20.1787 17.68 19.9067 17.46 18.9147 16.9133C17.9227 16.3653 16.5307 15.608 16.5493 14.084C16.572 12.1347 18.4187 10.8267 21.04 10.8267Z" fill="#004AAD"/>
</svg>
