<svg width="20" height="20" viewBox="0 0 20 20" fill="none" xmlns="http://www.w3.org/2000/svg">
<g id="vuesax/bold/send-2">
<g id="vuesax/bold/send-2_2">
<g id="send-2">
<path id="Vector" d="M13.45 2.4667L5.92498 4.9667C0.866642 6.65837 0.866642 9.4167 5.92498 11.1L8.15831 11.8417L8.89998 14.075C10.5833 19.1334 13.35 19.1334 15.0333 14.075L17.5416 6.55837C18.6583 3.18337 16.825 1.3417 13.45 2.4667ZM13.7166 6.95004L10.55 10.1334C10.425 10.2584 10.2666 10.3167 10.1083 10.3167C9.94998 10.3167 9.79164 10.2584 9.66664 10.1334C9.42498 9.8917 9.42498 9.4917 9.66664 9.25004L12.8333 6.0667C13.075 5.82504 13.475 5.82504 13.7166 6.0667C13.9583 6.30837 13.9583 6.70837 13.7166 6.95004Z" fill="white"/>
</g>
</g>
</g>
</svg>
