<svg width="25" height="25" viewBox="0 0 25 25" fill="none" xmlns="http://www.w3.org/2000/svg">
<path d="M17.9688 7.8125H3.90625C3.47478 7.8125 3.125 8.16228 3.125 8.59375V19.5312C3.125 19.9627 3.47478 20.3125 3.90625 20.3125H17.9688C18.4002 20.3125 18.75 19.9627 18.75 19.5312V8.59375C18.75 8.16228 18.4002 7.8125 17.9688 7.8125Z" stroke="#4A4A4A" stroke-width="2" stroke-linecap="round" stroke-linejoin="round"/>
<path d="M6.25 7.8125V5.46875C6.25 5.26155 6.33231 5.06284 6.47882 4.91632C6.62534 4.76981 6.82405 4.6875 7.03125 4.6875H21.0938C21.301 4.6875 21.4997 4.76981 21.6462 4.91632C21.7927 5.06284 21.875 5.26155 21.875 5.46875V16.4062C21.875 16.6135 21.7927 16.8122 21.6462 16.9587C21.4997 17.1052 21.301 17.1875 21.0938 17.1875H18.75" stroke="#4A4A4A" stroke-width="2" stroke-linecap="round" stroke-linejoin="round"/>
<path d="M3.125 10.9375H18.75" stroke="#4A4A4A" stroke-width="2" stroke-linecap="round" stroke-linejoin="round"/>
</svg>
