<svg width="25" height="25" viewBox="0 0 25 25" fill="none" xmlns="http://www.w3.org/2000/svg">
<path d="M12.5 17.1875C15.0888 17.1875 17.1875 15.0888 17.1875 12.5C17.1875 9.91117 15.0888 7.8125 12.5 7.8125C9.91117 7.8125 7.8125 9.91117 7.8125 12.5C7.8125 15.0888 9.91117 17.1875 12.5 17.1875Z" stroke="#4A4A4A" stroke-width="2" stroke-linecap="round" stroke-linejoin="round"/>
<path d="M17.9395 6.35742C18.1868 6.58529 18.4212 6.81966 18.6426 7.06055L21.3086 7.44141C21.743 8.19581 22.0778 9.00331 22.3047 9.84375L20.6836 12.002C20.6836 12.002 20.7129 12.666 20.6836 12.998L22.3047 15.1562C22.0789 15.997 21.744 16.8047 21.3086 17.5586L18.6426 17.9395C18.6426 17.9395 18.1836 18.418 17.9395 18.6426L17.5586 21.3086C16.8042 21.743 15.9967 22.0778 15.1562 22.3047L12.998 20.6836C12.6667 20.7129 12.3333 20.7129 12.002 20.6836L9.84375 22.3047C9.00295 22.0789 8.19532 21.744 7.44141 21.3086L7.06055 18.6426C6.81966 18.4147 6.58529 18.1803 6.35742 17.9395L3.69141 17.5586C3.25701 16.8042 2.9222 15.9967 2.69531 15.1562L4.31641 12.998C4.31641 12.998 4.28711 12.334 4.31641 12.002L2.69531 9.84375C2.92114 9.00295 3.25602 8.19532 3.69141 7.44141L6.35742 7.06055C6.58529 6.81966 6.81966 6.58529 7.06055 6.35742L7.44141 3.69141C8.19581 3.25701 9.00331 2.9222 9.84375 2.69531L12.002 4.31641C12.3333 4.2871 12.6667 4.2871 12.998 4.31641L15.1562 2.69531C15.997 2.92114 16.8047 3.25602 17.5586 3.69141L17.9395 6.35742Z" stroke="#4A4A4A" stroke-width="2" stroke-linecap="round" stroke-linejoin="round"/>
</svg>
