<svg width="22" height="20" viewBox="0 0 22 20" fill="none" xmlns="http://www.w3.org/2000/svg">
<path d="M11.4405 14.8985L15.6792 17.3985C16.2258 17.7188 16.8986 17.2422 16.7388 16.6563L15.511 12.1719C15.4778 12.0476 15.483 11.9171 15.5262 11.7955C15.5693 11.6738 15.6486 11.566 15.7549 11.4844L19.5562 8.53908C20.0523 8.15627 19.8 7.38283 19.1525 7.34377L14.1906 7.04689C14.0552 7.03958 13.9251 6.99578 13.816 6.92086C13.707 6.84594 13.6238 6.74314 13.5767 6.62502L11.7265 2.29689C11.6775 2.17182 11.5883 2.06377 11.4709 1.98742C11.3536 1.91107 11.2138 1.87012 11.0705 1.87012C10.9272 1.87012 10.7874 1.91107 10.6701 1.98742C10.5527 2.06377 10.4635 2.17182 10.4145 2.29689L8.56433 6.62502C8.51718 6.74314 8.43401 6.84594 8.32498 6.92086C8.21595 6.99578 8.08579 7.03958 7.95041 7.04689L2.98853 7.34377C2.34096 7.38283 2.08866 8.15627 2.58485 8.53908L6.38615 11.4844C6.4924 11.566 6.57166 11.6738 6.61481 11.7955C6.65796 11.9171 6.66324 12.0476 6.63004 12.1719L5.4947 16.3281C5.30127 17.0313 6.10862 17.6016 6.75619 17.2188L10.7005 14.8985C10.8111 14.8331 10.9394 14.7984 11.0705 14.7984C11.2016 14.7984 11.3299 14.8331 11.4405 14.8985V14.8985Z" fill="#FF3D3D"/>
</svg>
