<svg width="51" height="46" viewBox="0 0 51 46" fill="none" xmlns="http://www.w3.org/2000/svg">
<path d="M3.5 20.375H14.75V44.75H3.5C3.00272 44.75 2.52581 44.5525 2.17417 44.2008C1.82254 43.8492 1.625 43.3723 1.625 42.875V22.25C1.625 21.7527 1.82254 21.2758 2.17417 20.9242C2.52581 20.5725 3.00272 20.375 3.5 20.375Z" fill="#FF3D3D" stroke="#FF3D3D" stroke-width="2" stroke-linecap="round" stroke-linejoin="round"/>
<path d="M14.75 20.375L24.125 1.625C26.1141 1.625 28.0218 2.41518 29.4283 3.8217C30.8348 5.22822 31.625 7.13588 31.625 9.125V14.75H46.1328C46.6645 14.7487 47.1904 14.8612 47.675 15.0799C48.1597 15.2987 48.5919 15.6186 48.9427 16.0182C49.2935 16.4178 49.5547 16.8879 49.7087 17.3968C49.8628 17.9057 49.9062 18.4417 49.8359 18.9688L47.0234 41.4688C46.9096 42.372 46.4712 43.203 45.7898 43.8067C45.1084 44.4105 44.2307 44.7458 43.3203 44.75H14.75" fill="#FF3D3D"/>
<path d="M14.75 20.375L24.125 1.625C26.1141 1.625 28.0218 2.41518 29.4283 3.8217C30.8348 5.22822 31.625 7.13588 31.625 9.125V14.75H46.1328C46.6645 14.7487 47.1904 14.8612 47.675 15.0799C48.1597 15.2987 48.5919 15.6186 48.9427 16.0182C49.2935 16.4178 49.5547 16.8879 49.7087 17.3968C49.8628 17.9057 49.9062 18.4417 49.8359 18.9688L47.0234 41.4688C46.9096 42.372 46.4712 43.203 45.7898 43.8067C45.1084 44.4105 44.2307 44.7458 43.3203 44.75H14.75" stroke="#FF3D3D" stroke-width="2" stroke-linecap="round" stroke-linejoin="round"/>
<path d="M13 19V46.0036" stroke="#FFE2E2" stroke-width="3"/>
</svg>
