<svg width="49" height="51" viewBox="0 0 49 51" fill="none" xmlns="http://www.w3.org/2000/svg">
<g filter="url(#filter0_d_328_2784)">
<path d="M24 24C29.5228 24 34 19.5228 34 14C34 8.47715 29.5228 4 24 4C18.4772 4 14 8.47715 14 14C14 19.5228 18.4772 24 24 24Z" fill="white"/>
</g>
<g filter="url(#filter1_d_328_2784)">
<path d="M23.9999 29C13.9799 29 5.81995 35.72 5.81995 44C5.81995 44.56 6.25995 45 6.81995 45H41.1799C41.7399 45 42.1799 44.56 42.1799 44C42.1799 35.72 34.0199 29 23.9999 29Z" fill="white"/>
</g>
<defs>
<filter id="filter0_d_328_2784" x="12" y="2" width="28" height="28" filterUnits="userSpaceOnUse" color-interpolation-filters="sRGB">
<feFlood flood-opacity="0" result="BackgroundImageFix"/>
<feColorMatrix in="SourceAlpha" type="matrix" values="0 0 0 0 0 0 0 0 0 0 0 0 0 0 0 0 0 0 127 0" result="hardAlpha"/>
<feOffset dx="2" dy="2"/>
<feGaussianBlur stdDeviation="2"/>
<feComposite in2="hardAlpha" operator="out"/>
<feColorMatrix type="matrix" values="0 0 0 0 0.439216 0 0 0 0 0.396078 0 0 0 0 0.941176 0 0 0 0.1 0"/>
<feBlend mode="normal" in2="BackgroundImageFix" result="effect1_dropShadow_328_2784"/>
<feBlend mode="normal" in="SourceGraphic" in2="effect1_dropShadow_328_2784" result="shape"/>
</filter>
<filter id="filter1_d_328_2784" x="3.81995" y="27" width="44.36" height="24" filterUnits="userSpaceOnUse" color-interpolation-filters="sRGB">
<feFlood flood-opacity="0" result="BackgroundImageFix"/>
<feColorMatrix in="SourceAlpha" type="matrix" values="0 0 0 0 0 0 0 0 0 0 0 0 0 0 0 0 0 0 127 0" result="hardAlpha"/>
<feOffset dx="2" dy="2"/>
<feGaussianBlur stdDeviation="2"/>
<feComposite in2="hardAlpha" operator="out"/>
<feColorMatrix type="matrix" values="0 0 0 0 0.439216 0 0 0 0 0.396078 0 0 0 0 0.941176 0 0 0 0.1 0"/>
<feBlend mode="normal" in2="BackgroundImageFix" result="effect1_dropShadow_328_2784"/>
<feBlend mode="normal" in="SourceGraphic" in2="effect1_dropShadow_328_2784" result="shape"/>
</filter>
</defs>
</svg>
